<?xml version="1.0" encoding="UTF-8"?>
<svg xmlns="http://www.w3.org/2000/svg" width="650" height="800">
  <!-- Title -->
  <text x="325" y="18" text-anchor="middle" font-family="Arial" font-weight="bold" font-size="14" fill="#0D47A1">RDS Agent 项目目录结构</text>
  <text x="325" y="35" text-anchor="middle" font-family="Arial" font-size="12" fill="#666">(Django + Celery + Hermes)</text>

  <!-- Root -->
  <rect x="250" y="50" width="150" height="22" fill="#FFE0B2" stroke="#FF9800" stroke-width="1" rx="3"/>
  <text x="325" y="65" text-anchor="middle" font-family="Arial" font-weight="bold" font-size="10" fill="#E65100">rds-agent/</text>

  <!-- Level 1 lines -->
  <line x1="325" y1="72" x2="325" y2="85" stroke="#9E9E9E" stroke-width="1"/>
  <line x1="40" y1="85" x2="600" y2="85" stroke="#9E9E9E" stroke-width="1"/>

  <!-- Directories -->
  <rect x="40" y="85" width="60" height="18" fill="#FFE0B2" stroke="#FF9800" stroke-width="1" rx="2"/>
  <text x="70" y="97" text-anchor="middle" font-family="Arial" font-weight="bold" font-size="9" fill="#E65100">src/</text>

  <rect x="530" y="85" width="60" height="18" fill="#FFE0B2" stroke="#FF9800" stroke-width="1" rx="2"/>
  <text x="560" y="97" text-anchor="middle" font-family="Arial" font-weight="bold" font-size="9" fill="#E65100">tests/</text>

  <rect x="230" y="85" width="50" height="18" fill="#FFE0B2" stroke="#FF9800" stroke-width="1" rx="2"/>
  <text x="255" y="97" text-anchor="middle" font-family="Arial" font-weight="bold" font-size="9" fill="#E65100">docs/</text>

  <rect x="290" y="85" width="70" height="18" fill="#FFE0B2" stroke="#FF9800" stroke-width="1" rx="2"/>
  <text x="325" y="97" text-anchor="middle" font-family="Arial" font-weight="bold" font-size="9" fill="#E65100">knowledge/</text>

  <rect x="370" y="85" width="60" height="18" fill="#FFE0B2" stroke="#FF9800" stroke-width="1" rx="2"/>
  <text x="400" y="97" text-anchor="middle" font-family="Arial" font-weight="bold" font-size="9" fill="#E65100">scripts/</text>

  <!-- Root files -->
  <rect x="110" y="85" width="55" height="18" fill="#E3F2FD" stroke="#2196F3" stroke-width="1" rx="2"/>
  <text x="137" y="97" text-anchor="middle" font-family="Arial" font-size="7" fill="#1565C0">manage.py</text>

  <rect x="170" y="85" width="55" height="18" fill="#E3F2FD" stroke="#2196F3" stroke-width="1" rx="2"/>
  <text x="197" y="97" text-anchor="middle" font-family="Arial" font-size="7" fill="#1565C0">.env.example</text>

  <!-- src/rds_agent/ -->
  <rect x="25" y="115" width="130" height="22" fill="#FFE0B2" stroke="#FF9800" stroke-width="1" rx="3"/>
  <text x="90" y="130" text-anchor="middle" font-family="Arial" font-weight="bold" font-size="9" fill="#E65100">rds_agent/</text>

  <line x1="90" y1="137" x2="90" y2="150" stroke="#9E9E9E" stroke-width="1"/>
  <line x1="15" y1="150" x2="165" y2="150" stroke="#9E9E9E" stroke-width="1"/>

  <!-- Module folders -->
  <!-- django_project/ -->
  <rect x="10" y="175" width="80" height="18" fill="#FFE0B2" stroke="#FF9800" stroke-width="1" rx="2"/>
  <text x="50" y="187" text-anchor="middle" font-family="Arial" font-weight="bold" font-size="8" fill="#E65100">django_project/</text>
  <line x1="50" y1="193" x2="50" y2="205" stroke="#9E9E9E" stroke-width="1"/>
  <rect x="20" y="205" width="60" height="12" fill="#E3F2FD" stroke="#2196F3" stroke-width="1" rx="1"/>
  <text x="50" y="212" text-anchor="middle" font-family="Arial" font-size="6" fill="#1565C0">settings.py</text>
  <rect x="20" y="220" width="60" height="12" fill="#E3F2FD" stroke="#2196F3" stroke-width="1" rx="1"/>
  <text x="50" y="227" text-anchor="middle" font-family="Arial" font-size="6" fill="#1565C0">celery.py</text>

  <!-- hermes/ (NEW) -->
  <rect x="100" y="175" width="70" height="18" fill="#FCE4EC" stroke="#E91E63" stroke-width="1" rx="2"/>
  <text x="135" y="187" text-anchor="middle" font-family="Arial" font-weight="bold" font-size="8" fill="#C2185B">hermes/</text>
  <line x1="135" y1="193" x2="135" y2="205" stroke="#9E9E9E" stroke-width="1"/>
  <rect x="105" y="205" width="60" height="12" fill="#FCE4EC" stroke="#E91E63" stroke-width="1" rx="1"/>
  <text x="135" y="212" text-anchor="middle" font-family="Arial" font-size="6" fill="#C2185B">agent.py</text>
  <rect x="105" y="220" width="60" height="12" fill="#FCE4EC" stroke="#E91E63" stroke-width="1" rx="1"/>
  <text x="135" y="227" text-anchor="middle" font-family="Arial" font-size="6" fill="#C2185B">client.py</text>
  <rect x="105" y="235" width="60" height="12" fill="#FCE4EC" stroke="#E91E63" stroke-width="1" rx="1"/>
  <text x="135" y="242" text-anchor="middle" font-family="Arial" font-size="6" fill="#C2185B">tools.py</text>
  <rect x="105" y="250" width="60" height="12" fill="#FCE4EC" stroke="#E91E63" stroke-width="1" rx="1"/>
  <text x="135" y="257" text-anchor="middle" font-family="Arial" font-size="6" fill="#C2185B">function_schema</text>

  <!-- scheduler/ -->
  <rect x="180" y="175" width="70" height="18" fill="#FFE0B2" stroke="#FF9800" stroke-width="1" rx="2"/>
  <text x="215" y="187" text-anchor="middle" font-family="Arial" font-weight="bold" font-size="8" fill="#E65100">scheduler/</text>
  <line x1="215" y1="193" x2="215" y2="205" stroke="#9E9E9E" stroke-width="1"/>
  <rect x="180" y="205" width="60" height="12" fill="#FFE0B2" stroke="#FF9800" stroke-width="1" rx="1"/>
  <text x="210" y="212" text-anchor="middle" font-family="Arial" font-size="6" fill="#E65100">models/</text>
  <rect x="180" y="220" width="60" height="12" fill="#FFE0B2" stroke="#FF9800" stroke-width="1" rx="1"/>
  <text x="210" y="227" text-anchor="middle" font-family="Arial" font-size="6" fill="#E65100">api/</text>
  <rect x="180" y="235" width="60" height="12" fill="#FFE0B2" stroke="#FF9800" stroke-width="1" rx="1"/>
  <text x="210" y="242" text-anchor="middle" font-family="Arial" font-size="6" fill="#E65100">tasks/</text>
  <rect x="180" y="250" width="60" height="12" fill="#FFE0B2" stroke="#FF9800" stroke-width="1" rx="1"/>
  <text x="210" y="257" text-anchor="middle" font-family="Arial" font-size="6" fill="#E65100">services/</text>

  <!-- diagnostic/ -->
  <rect x="260" y="175" width="70" height="18" fill="#F3E5F5" stroke="#9C27B0" stroke-width="1" rx="2"/>
  <text x="295" y="187" text-anchor="middle" font-family="Arial" font-weight="bold" font-size="8" fill="#7B1FA2">diagnostic/</text>
  <line x1="295" y1="193" x2="295" y2="205" stroke="#9E9E9E" stroke-width="1"/>
  <rect x="260" y="205" width="60" height="12" fill="#F3E5F5" stroke="#9C27B0" stroke-width="1" rx="1"/>
  <text x="290" y="212" text-anchor="middle" font-family="Arial" font-size="6" fill="#7B1FA2">agent.py</text>
  <rect x="260" y="220" width="60" height="12" fill="#F3E5F5" stroke="#9C27B0" stroke-width="1" rx="1"/>
  <text x="290" y="227" text-anchor="middle" font-family="Arial" font-size="6" fill="#7B1FA2">checks.py</text>

  <!-- core/ -->
  <rect x="340" y="175" width="55" height="18" fill="#F3E5F5" stroke="#9C27B0" stroke-width="1" rx="2"/>
  <text x="367" y="187" text-anchor="middle" font-family="Arial" font-weight="bold" font-size="8" fill="#7B1FA2">core/</text>
  <line x1="367" y1="193" x2="367" y2="205" stroke="#9E9E9E" stroke-width="1"/>
  <rect x="340" y="205" width="55" height="12" fill="#F3E5F5" stroke="#9C27B0" stroke-width="1" rx="1"/>
  <text x="367" y="212" text-anchor="middle" font-family="Arial" font-size="6" fill="#7B1FA2">agent.py</text>

  <!-- tools/ -->
  <rect x="410" y="175" width="55" height="18" fill="#E8F5E9" stroke="#4CAF50" stroke-width="1" rx="2"/>
  <text x="437" y="187" text-anchor="middle" font-family="Arial" font-weight="bold" font-size="8" fill="#2E7D32">tools/</text>
  <line x1="437" y1="193" x2="437" y2="205" stroke="#9E9E9E" stroke-width="1"/>
  <rect x="410" y="205" width="55" height="12" fill="#E8F5E9" stroke="#4CAF50" stroke-width="1" rx="1"/>
  <text x="437" y="212" text-anchor="middle" font-family="Arial" font-size="6" fill="#2E7D32">instance.py</text>
  <rect x="410" y="220" width="55" height="12" fill="#E8F5E9" stroke="#4CAF50" stroke-width="1" rx="1"/>
  <text x="437" y="227" text-anchor="middle" font-family="Arial" font-size="6" fill="#2E7D32">performance.py</text>

  <!-- utils/ -->
  <rect x="480" y="175" width="50" height="18" fill="#FFE0B2" stroke="#FF9800" stroke-width="1" rx="2"/>
  <text x="505" y="187" text-anchor="middle" font-family="Arial" font-weight="bold" font-size="8" fill="#E65100">utils/</text>
  <line x1="505" y1="193" x2="505" y2="205" stroke="#9E9E9E" stroke-width="1"/>
  <rect x="480" y="205" width="50" height="12" fill="#E3F2FD" stroke="#2196F3" stroke-width="1" rx="1"/>
  <text x="505" y="212" text-anchor="middle" font-family="Arial" font-size="6" fill="#1565C0">config.py</text>

  <!-- Tests structure -->
  <rect x="530" y="115" width="75" height="18" fill="#FFE0B2" stroke="#FF9800" stroke-width="1" rx="2"/>
  <text x="567" y="127" text-anchor="middle" font-family="Arial" font-weight="bold" font-size="8" fill="#E65100">tests/</text>
  <line x1="567" y1="133" x2="567" y2="145" stroke="#9E9E9E" stroke-width="1"/>
  <line x1="490" y1="145" x2="630" y2="145" stroke="#9E9E9E" stroke-width="1"/>

  <!-- test_hermes/ (NEW) -->
  <rect x="490" y="145" width="70" height="18" fill="#FCE4EC" stroke="#E91E63" stroke-width="1" rx="2"/>
  <text x="525" y="157" text-anchor="middle" font-family="Arial" font-weight="bold" font-size="8" fill="#C2185B">test_hermes/</text>

  <rect x="570" y="145" width="70" height="18" fill="#FFE0B2" stroke="#FF9800" stroke-width="1" rx="2"/>
  <text x="605" y="157" text-anchor="middle" font-family="Arial" font-weight="bold" font-size="8" fill="#E65100">test_django/</text>

  <rect x="490" y="165" width="70" height="18" fill="#FFE0B2" stroke="#FF9800" stroke-width="1" rx="2"/>
  <text x="525" y="177" text-anchor="middle" font-family="Arial" font-weight="bold" font-size="8" fill="#E65100">test_agent/</text>

  <rect x="570" y="165" width="70" height="18" fill="#FFE0B2" stroke="#FF9800" stroke-width="1" rx="2"/>
  <text x="605" y="177" text-anchor="middle" font-family="Arial" font-weight="bold" font-size="8" fill="#E65100">test_tools/</text>

  <!-- Stats -->
  <rect x="180" y="290" width="280" height="80" fill="#E8EAF6" stroke="#3F51B5" stroke-width="1" rx="5"/>
  <text x="320" y="308" text-anchor="middle" font-family="Arial" font-weight="bold" font-size="11" fill="#283593">项目统计</text>
  <text x="320" y="325" text-anchor="middle" font-family="Arial" font-size="9" fill="#333">源文件: 60+ | 测试: 50+ | 模块: 9</text>
  <text x="320" y="340" text-anchor="middle" font-family="Arial" font-size="9" fill="#333">架构: Django 4.2 + Celery 5.3</text>
  <text x="320" y="355" text-anchor="middle" font-family="Arial" font-size="9" fill="#E91E63">+ Hermes Function Calling</text>

  <!-- Agent Comparison -->
  <rect x="180" y="380" width="280" height="100" fill="#FFF3E0" stroke="#FF9800" stroke-width="1" rx="5"/>
  <text x="320" y="398" text-anchor="middle" font-family="Arial" font-weight="bold" font-size="11" fill="#E65100">双 Agent 架构</text>

  <rect x="200" y="410" width="110" height="60" fill="#F3E5F5" stroke="#9C27B0" stroke-width="1" rx="3"/>
  <text x="255" y="425" text-anchor="middle" font-family="Arial" font-weight="bold" font-size="9" fill="#7B1FA2">LangGraph</text>
  <text x="255" y="440" text-anchor="middle" font-family="Arial" font-size="8" fill="#333">Qwen2.5-14B</text>
  <text x="255" y="455" text-anchor="middle" font-family="Arial" font-size="8" fill="#333">状态机编排</text>
  <text x="255" y="470" text-anchor="middle" font-family="Arial" font-size="8" fill="#333">复杂流程</text>

  <rect x="330" y="410" width="110" height="60" fill="#FCE4EC" stroke="#E91E63" stroke-width="1" rx="3"/>
  <text x="385" y="425" text-anchor="middle" font-family="Arial" font-weight="bold" font-size="9" fill="#C2185B">Hermes</text>
  <text x="385" y="440" text-anchor="middle" font-family="Arial" font-size="8" fill="#333">Hermes 3</text>
  <text x="385" y="455" text-anchor="middle" font-family="Arial" font-size="8" fill="#333">Function Calling</text>
  <text x="385" y="470" text-anchor="middle" font-family="Arial" font-size="8" fill="#333">快速工具调用</text>

  <!-- Legend -->
  <rect x="180" y="490" width="280" height="50" fill="#fafafa" stroke="#ddd" stroke-width="1" rx="3"/>
  <text x="200" y="505" font-family="Arial" font-weight="bold" font-size="10" fill="#333">模块颜色:</text>
  <rect x="200" y="515" width="15" height="10" fill="#FCE4EC" stroke="#E91E63" stroke-width="1" rx="1"/>
  <text x="220" y="522" font-family="Arial" font-size="9" fill="#333">Hermes</text>
  <rect x="270" y="515" width="15" height="10" fill="#F3E5F5" stroke="#9C27B0" stroke-width="1" rx="1"/>
  <text x="290" y="522" font-family="Arial" font-size="9" fill="#333">LangGraph</text>
  <rect x="350" y="515" width="15" height="10" fill="#FFE0B2" stroke="#FF9800" stroke-width="1" rx="1"/>
  <text x="370" y="522" font-family="Arial" font-size="9" fill="#333">Django/Celery</text>
</svg>