<?xml version="1.0" encoding="UTF-8"?>
<svg xmlns="http://www.w3.org/2000/svg" width="600" height="750">
  <!-- Title -->
  <text x="300" y="18" text-anchor="middle" font-family="Arial" font-weight="bold" font-size="14" fill="#0D47A1">RDS Agent 项目目录结构 (Django + Celery)</text>

  <!-- Root -->
  <rect x="225" y="35" width="150" height="22" fill="#FFE0B2" stroke="#FF9800" stroke-width="1" rx="3"/>
  <text x="300" y="50" text-anchor="middle" font-family="Arial" font-weight="bold" font-size="10" fill="#E65100">rds-agent/</text>

  <!-- Level 1 lines -->
  <line x1="300" y1="57" x2="300" y2="70" stroke="#9E9E9E" stroke-width="1"/>
  <line x1="40" y1="70" x2="550" y2="70" stroke="#9E9E9E" stroke-width="1"/>

  <!-- src/ -->
  <rect x="40" y="70" width="60" height="18" fill="#FFE0B2" stroke="#FF9800" stroke-width="1" rx="2"/>
  <text x="70" y="82" text-anchor="middle" font-family="Arial" font-weight="bold" font-size="9" fill="#E65100">src/</text>

  <!-- tests/ -->
  <rect x="480" y="70" width="60" height="18" fill="#FFE0B2" stroke="#FF9800" stroke-width="1" rx="2"/>
  <text x="510" y="82" text-anchor="middle" font-family="Arial" font-weight="bold" font-size="9" fill="#E65100">tests/</text>

  <!-- docs/ -->
  <rect x="220" y="70" width="50" height="18" fill="#FFE0B2" stroke="#FF9800" stroke-width="1" rx="2"/>
  <text x="245" y="82" text-anchor="middle" font-family="Arial" font-weight="bold" font-size="9" fill="#E65100">docs/</text>

  <!-- knowledge/ -->
  <rect x="280" y="70" width="70" height="18" fill="#FFE0B2" stroke="#FF9800" stroke-width="1" rx="2"/>
  <text x="315" y="82" text-anchor="middle" font-family="Arial" font-weight="bold" font-size="9" fill="#E65100">knowledge/</text>

  <!-- scripts/ -->
  <rect x="360" y="70" width="60" height="18" fill="#FFE0B2" stroke="#FF9800" stroke-width="1" rx="2"/>
  <text x="390" y="82" text-anchor="middle" font-family="Arial" font-weight="bold" font-size="9" fill="#E65100">scripts/</text>

  <!-- Root files -->
  <rect x="110" y="70" width="55" height="18" fill="#E3F2FD" stroke="#2196F3" stroke-width="1" rx="2"/>
  <text x="137" y="82" text-anchor="middle" font-family="Arial" font-size="7" fill="#1565C0">manage.py</text>

  <rect x="170" y="70" width="45" height="18" fill="#E3F2FD" stroke="#2196F3" stroke-width="1" rx="2"/>
  <text x="192" y="82" text-anchor="middle" font-family="Arial" font-size="7" fill="#1565C0">pytest.ini</text>

  <!-- src/rds_agent/ -->
  <rect x="25" y="100" width="130" height="22" fill="#FFE0B2" stroke="#FF9800" stroke-width="1" rx="3"/>
  <text x="90" y="115" text-anchor="middle" font-family="Arial" font-weight="bold" font-size="9" fill="#E65100">rds_agent/</text>

  <line x1="90" y1="122" x2="90" y2="135" stroke="#9E9E9E" stroke-width="1"/>
  <line x1="15" y1="135" x2="165" y2="135" stroke="#9E9E9E" stroke-width="1"/>

  <!-- root py files -->
  <rect x="30" y="135" width="45" height="16" fill="#E3F2FD" stroke="#2196F3" stroke-width="1" rx="1"/>
  <text x="52" y="145" text-anchor="middle" font-family="Arial" font-size="7" fill="#1565C0">__init__.py</text>

  <rect x="80" y="135" width="40" height="16" fill="#E3F2FD" stroke="#2196F3" stroke-width="1" rx="1"/>
  <text x="100" y="145" text-anchor="middle" font-family="Arial" font-size="7" fill="#1565C0">main.py</text>

  <rect x="125" y="135" width="35" height="16" fill="#E3F2FD" stroke="#2196F3" stroke-width="1" rx="1"/>
  <text x="142" y="145" text-anchor="middle" font-family="Arial" font-size="7" fill="#1565C0">cli.py</text>

  <!-- django_project/ -->
  <rect x="10" y="160" width="80" height="18" fill="#FFE0B2" stroke="#FF9800" stroke-width="1" rx="2"/>
  <text x="50" y="172" text-anchor="middle" font-family="Arial" font-weight="bold" font-size="8" fill="#E65100">django_project/</text>
  <line x1="50" y1="178" x2="50" y2="190" stroke="#9E9E9E" stroke-width="1"/>

  <rect x="10" y="190" width="50" height="14" fill="#E3F2FD" stroke="#2196F3" stroke-width="1" rx="1"/>
  <text x="35" y="198" text-anchor="middle" font-family="Arial" font-size="6" fill="#1565C0">settings.py</text>
  <rect x="10" y="206" width="50" height="14" fill="#E3F2FD" stroke="#2196F3" stroke-width="1" rx="1"/>
  <text x="35" y="214" text-anchor="middle" font-family="Arial" font-size="6" fill="#1565C0">urls.py</text>
  <rect x="10" y="222" width="50" height="14" fill="#E3F2FD" stroke="#2196F3" stroke-width="1" rx="1"/>
  <text x="35" y="230" text-anchor="middle" font-family="Arial" font-size="6" fill="#1565C0">celery.py</text>
  <rect x="10" y="238" width="50" height="14" fill="#E3F2FD" stroke="#2196F3" stroke-width="1" rx="1"/>
  <text x="35" y="246" text-anchor="middle" font-family="Arial" font-size="6" fill="#1565C0">wsgi.py</text>

  <!-- scheduler/ -->
  <rect x="70" y="160" width="80" height="18" fill="#FFE0B2" stroke="#FF9800" stroke-width="1" rx="2"/>
  <text x="110" y="172" text-anchor="middle" font-family="Arial" font-weight="bold" font-size="8" fill="#E65100">scheduler/</text>
  <line x1="110" y1="178" x2="110" y2="190" stroke="#9E9E9E" stroke-width="1"/>

  <!-- scheduler/models/ -->
  <rect x="70" y="190" width="60" height="14" fill="#FFE0B2" stroke="#FF9800" stroke-width="1" rx="2"/>
  <text x="100" y="198" text-anchor="middle" font-family="Arial" font-size="7" fill="#E65100">models/</text>

  <rect x="70" y="206" width="60" height="12" fill="#E3F2FD" stroke="#2196F3" stroke-width="1" rx="1"/>
  <text x="100" y="214" text-anchor="middle" font-family="Arial" font-size="5" fill="#1565C0">task.py</text>
  <rect x="70" y="220" width="60" height="12" fill="#E3F2FD" stroke="#2196F3" stroke-width="1" rx="1"/>
  <text x="100" y="228" text-anchor="middle" font-family="Arial" font-size="5" fill="#1565C0">execution.py</text>
  <rect x="70" y="234" width="60" height="12" fill="#E3F2FD" stroke="#2196F3" stroke-width="1" rx="1"/>
  <text x="100" y="242" text-anchor="middle" font-family="Arial" font-size="5" fill="#1565C0">alert.py</text>
  <rect x="70" y="248" width="60" height="12" fill="#E3F2FD" stroke="#2196F3" stroke-width="1" rx="1"/>
  <text x="100" y="256" text-anchor="middle" font-family="Arial" font-size="5" fill="#1565C0">history.py</text>
  <rect x="70" y="262" width="60" height="12" fill="#E3F2FD" stroke="#2196F3" stroke-width="1" rx="1"/>
  <text x="100" y="270" text-anchor="middle" font-family="Arial" font-size="5" fill="#1565C0">notification.py</text>

  <!-- scheduler/api/ -->
  <rect x="140" y="190" width="50" height="14" fill="#FFE0B2" stroke="#FF9800" stroke-width="1" rx="2"/>
  <text x="165" y="198" text-anchor="middle" font-family="Arial" font-size="7" fill="#E65100">api/</text>

  <rect x="140" y="206" width="50" height="12" fill="#E3F2FD" stroke="#2196F3" stroke-width="1" rx="1"/>
  <text x="165" y="214" text-anchor="middle" font-family="Arial" font-size="5" fill="#1565C0">views.py</text>
  <rect x="140" y="220" width="50" height="12" fill="#E3F2FD" stroke="#2196F3" stroke-width="1" rx="1"/>
  <text x="165" y="228" text-anchor="middle" font-family="Arial" font-size="5" fill="#1565C0">serializers.py</text>
  <rect x="140" y="234" width="50" height="12" fill="#E3F2FD" stroke="#2196F3" stroke-width="1" rx="1"/>
  <text x="165" y="242" text-anchor="middle" font-family="Arial" font-size="5" fill="#1565C0">urls.py</text>

  <!-- scheduler/tasks/ -->
  <rect x="200" y="190" width="50" height="14" fill="#FFE0B2" stroke="#FF9800" stroke-width="1" rx="2"/>
  <text x="225" y="198" text-anchor="middle" font-family="Arial" font-size="7" fill="#E65100">tasks/</text>

  <rect x="200" y="206" width="50" height="12" fill="#E3F2FD" stroke="#2196F3" stroke-width="1" rx="1"/>
  <text x="225" y="214" text-anchor="middle" font-family="Arial" font-size="5" fill="#1565C0">inspection.py</text>
  <rect x="200" y="220" width="50" height="12" fill="#E3F2FD" stroke="#2196F3" stroke-width="1" rx="1"/>
  <text x="225" y="228" text-anchor="middle" font-family="Arial" font-size="5" fill="#1565C0">notification.py</text>

  <!-- scheduler/services/ -->
  <rect x="260" y="190" width="50" height="14" fill="#FFE0B2" stroke="#FF9800" stroke-width="1" rx="2"/>
  <text x="285" y="198" text-anchor="middle" font-family="Arial" font-size="7" fill="#E65100">services/</text>

  <rect x="260" y="206" width="50" height="12" fill="#E3F2FD" stroke="#2196F3" stroke-width="1" rx="1"/>
  <text x="285" y="214" text-anchor="middle" font-family="Arial" font-size="5" fill="#1565C0">task_service.py</text>
  <rect x="260" y="220" width="50" height="12" fill="#E3F2FD" stroke="#2196F3" stroke-width="1" rx="1"/>
  <text x="285" y="228" text-anchor="middle" font-family="Arial" font-size="5" fill="#1565C0">alert_service.py</text>
  <rect x="260" y="234" width="50" height="12" fill="#E3F2FD" stroke="#2196F3" stroke-width="1" rx="1"/>
  <text x="285" y="242" text-anchor="middle" font-family="Arial" font-size="5" fill="#1565C0">history_service.py</text>
  <rect x="260" y="248" width="50" height="12" fill="#E3F2FD" stroke="#2196F3" stroke-width="1" rx="1"/>
  <text x="285" y="256" text-anchor="middle" font-family="Arial" font-size="5" fill="#1565C0">notification_svc.py</text>

  <!-- diagnostic/ -->
  <rect x="10" y="290" width="70" height="18" fill="#FFE0B2" stroke="#FF9800" stroke-width="1" rx="2"/>
  <text x="45" y="302" text-anchor="middle" font-family="Arial" font-weight="bold" font-size="8" fill="#E65100">diagnostic/</text>
  <line x1="45" y1="308" x2="45" y2="320" stroke="#9E9E9E" stroke-width="1"/>

  <rect x="10" y="320" width="50" height="14" fill="#E3F2FD" stroke="#2196F3" stroke-width="1" rx="1"/>
  <text x="35" y="328" text-anchor="middle" font-family="Arial" font-size="6" fill="#1565C0">agent.py</text>
  <rect x="10" y="336" width="50" height="14" fill="#E3F2FD" stroke="#2196F3" stroke-width="1" rx="1"/>
  <text x="35" y="344" text-anchor="middle" font-family="Arial" font-size="6" fill="#1565C0">state.py</text>
  <rect x="10" y="352" width="50" height="14" fill="#E3F2FD" stroke="#2196F3" stroke-width="1" rx="1"/>
  <text x="35" y="360" text-anchor="middle" font-family="Arial" font-size="6" fill="#1565C0">nodes.py</text>
  <rect x="10" y="368" width="50" height="14" fill="#E3F2FD" stroke="#2196F3" stroke-width="1" rx="1"/>
  <text x="35" y="376" text-anchor="middle" font-family="Arial" font-size="6" fill="#1565C0">checks.py</text>
  <rect x="10" y="384" width="50" height="14" fill="#E3F2FD" stroke="#2196F3" stroke-width="1" rx="1"/>
  <text x="35" y="392" text-anchor="middle" font-family="Arial" font-size="6" fill="#1565C0">report_gen.py</text>
  <rect x="10" y="400" width="50" height="14" fill="#E3F2FD" stroke="#2196F3" stroke-width="1" rx="1"/>
  <text x="35" y="408" text-anchor="middle" font-family="Arial" font-size="6" fill="#1565C0">param_opt.py</text>

  <!-- core/ -->
  <rect x="80" y="290" width="50" height="18" fill="#FFE0B2" stroke="#FF9800" stroke-width="1" rx="2"/>
  <text x="105" y="302" text-anchor="middle" font-family="Arial" font-weight="bold" font-size="8" fill="#E65100">core/</text>
  <line x1="105" y1="308" x2="105" y2="320" stroke="#9E9E9E" stroke-width="1"/>

  <rect x="80" y="320" width="50" height="14" fill="#E3F2FD" stroke="#2196F3" stroke-width="1" rx="1"/>
  <text x="105" y="328" text-anchor="middle" font-family="Arial" font-size="6" fill="#1565C0">agent.py</text>
  <rect x="80" y="336" width="50" height="14" fill="#E3F2FD" stroke="#2196F3" stroke-width="1" rx="1"/>
  <text x="105" y="344" text-anchor="middle" font-family="Arial" font-size="6" fill="#1565C0">state.py</text>
  <rect x="80" y="352" width="50" height="14" fill="#E3F2FD" stroke="#2196F3" stroke-width="1" rx="1"/>
  <text x="105" y="360" text-anchor="middle" font-family="Arial" font-size="6" fill="#1565C0">nodes.py</text>
  <rect x="80" y="368" width="50" height="14" fill="#E3F2FD" stroke="#2196F3" stroke-width="1" rx="1"/>
  <text x="105" y="376" text-anchor="middle" font-family="Arial" font-size="6" fill="#1565C0">prompts.py</text>

  <!-- tools/ -->
  <rect x="140" y="290" width="55" height="18" fill="#FFE0B2" stroke="#FF9800" stroke-width="1" rx="2"/>
  <text x="167" y="302" text-anchor="middle" font-family="Arial" font-weight="bold" font-size="8" fill="#E65100">tools/</text>
  <line x1="167" y1="308" x2="167" y2="320" stroke="#9E9E9E" stroke-width="1"/>

  <rect x="140" y="320" width="55" height="12" fill="#E3F2FD" stroke="#2196F3" stroke-width="1" rx="1"/>
  <text x="167" y="328" text-anchor="middle" font-family="Arial" font-size="5" fill="#1565C0">instance.py</text>
  <rect x="140" y="334" width="55" height="12" fill="#E3F2FD" stroke="#2196F3" stroke-width="1" rx="1"/>
  <text x="167" y="342" text-anchor="middle" font-family="Arial" font-size="5" fill="#1565C0">performance.py</text>
  <rect x="140" y="348" width="55" height="12" fill="#E3F2FD" stroke="#2196F3" stroke-width="1" rx="1"/>
  <text x="167" y="356" text-anchor="middle" font-family="Arial" font-size="5" fill="#1565C0">sql.py</text>
  <rect x="140" y="362" width="55" height="12" fill="#E3F2FD" stroke="#2196F3" stroke-width="1" rx="1"/>
  <text x="167" y="370" text-anchor="middle" font-family="Arial" font-size="5" fill="#1565C0">connection.py</text>
  <rect x="140" y="376" width="55" height="12" fill="#E3F2FD" stroke="#2196F3" stroke-width="1" rx="1"/>
  <text x="167" y="384" text-anchor="middle" font-family="Arial" font-size="5" fill="#1565C0">storage.py</text>
  <rect x="140" y="390" width="55" height="12" fill="#E3F2FD" stroke="#2196F3" stroke-width="1" rx="1"/>
  <text x="167" y="398" text-anchor="middle" font-family="Arial" font-size="5" fill="#1565C0">parameters.py</text>
  <rect x="140" y="404" width="55" height="12" fill="#E3F2FD" stroke="#2196F3" stroke-width="1" rx="1"/>
  <text x="167" y="412" text-anchor="middle" font-family="Arial" font-size="5" fill="#1565C0">knowledge.py</text>
  <rect x="140" y="418" width="55" height="12" fill="#E3F2FD" stroke="#2196F3" stroke-width="1" rx="1"/>
  <text x="167" y="426" text-anchor="middle" font-family="Arial" font-size="5" fill="#1565C0">diagnostic.py</text>

  <!-- utils/ -->
  <rect x="205" y="290" width="50" height="18" fill="#FFE0B2" stroke="#FF9800" stroke-width="1" rx="2"/>
  <text x="230" y="302" text-anchor="middle" font-family="Arial" font-weight="bold" font-size="8" fill="#E65100">utils/</text>
  <line x1="230" y1="308" x2="230" y2="320" stroke="#9E9E9E" stroke-width="1"/>

  <rect x="205" y="320" width="50" height="14" fill="#E3F2FD" stroke="#2196F3" stroke-width="1" rx="1"/>
  <text x="230" y="328" text-anchor="middle" font-family="Arial" font-size="6" fill="#1565C0">config.py</text>
  <rect x="205" y="336" width="50" height="14" fill="#E3F2FD" stroke="#2196F3" stroke-width="1" rx="1"/>
  <text x="230" y="344" text-anchor="middle" font-family="Arial" font-size="6" fill="#1565C0">logger.py</text>

  <!-- memory/ -->
  <rect x="265" y="290" width="50" height="18" fill="#FFE0B2" stroke="#FF9800" stroke-width="1" rx="2"/>
  <text x="290" y="302" text-anchor="middle" font-family="Arial" font-weight="bold" font-size="8" fill="#E65100">memory/</text>

  <!-- Tests structure -->
  <line x1="510" y1="88" x2="510" y2="100" stroke="#9E9E9E" stroke-width="1"/>

  <rect x="430" y="100" width="75" height="18" fill="#FFE0B2" stroke="#FF9800" stroke-width="1" rx="2"/>
  <text x="467" y="112" text-anchor="middle" font-family="Arial" font-weight="bold" font-size="8" fill="#E65100">test_django/</text>

  <rect x="510" y="100" width="75" height="18" fill="#FFE0B2" stroke="#FF9800" stroke-width="1" rx="2"/>
  <text x="547" y="112" text-anchor="middle" font-family="Arial" font-weight="bold" font-size="8" fill="#E65100">test_agent/</text>

  <rect x="430" y="122" width="75" height="18" fill="#FFE0B2" stroke="#FF9800" stroke-width="1" rx="2"/>
  <text x="467" y="134" text-anchor="middle" font-family="Arial" font-weight="bold" font-size="8" fill="#E65100">test_tools/</text>

  <rect x="510" y="122" width="75" height="18" fill="#FFE0B2" stroke="#FF9800" stroke-width="1" rx="2"/>
  <text x="547" y="134" text-anchor="middle" font-family="Arial" font-weight="bold" font-size="8" fill="#E65100">test_integration/</text>

  <rect x="430" y="144" width="60" height="16" fill="#E3F2FD" stroke="#2196F3" stroke-width="1" rx="1"/>
  <text x="460" y="154" text-anchor="middle" font-family="Arial" font-size="7" fill="#1565C0">conftest.py</text>

  <!-- Docs structure -->
  <line x1="245" y1="88" x2="245" y2="100" stroke="#9E9E9E" stroke-width="1"/>

  <rect x="210" y="100" width="70" height="18" fill="#FFE0B2" stroke="#FF9800" stroke-width="1" rx="2"/>
  <text x="245" y="112" text-anchor="middle" font-family="Arial" font-weight="bold" font-size="8" fill="#E65100">architecture/</text>

  <!-- Stats -->
  <rect x="180" y="460" width="220" height="60" fill="#E8EAF6" stroke="#3F51B5" stroke-width="1" rx="5"/>
  <text x="290" y="478" text-anchor="middle" font-family="Arial" font-weight="bold" font-size="11" fill="#283593">项目统计</text>
  <text x="290" y="495" text-anchor="middle" font-family="Arial" font-size="9" fill="#333">源文件: 50+ | 测试: 40+ | 模块: 8</text>
  <text x="290" y="508" text-anchor="middle" font-family="Arial" font-size="9" fill="#333">架构: Django 4.2 + Celery 5.3</text>

  <!-- Legend -->
  <rect x="180" y="530" width="220" height="50" fill="#fafafa" stroke="#ddd" stroke-width="1" rx="3"/>
  <text x="200" y="550" font-family="Arial" font-weight="bold" font-size="10" fill="#333">图例说明:</text>

  <rect x="200" y="560" width="30" height="12" fill="#FFE0B2" stroke="#FF9800" stroke-width="1" rx="1"/>
  <text x="240" y="568" font-family="Arial" font-size="9" fill="#333">目录</text>

  <rect x="280" y="560" width="30" height="12" fill="#E3F2FD" stroke="#2196F3" stroke-width="1" rx="1"/>
  <text x="320" y="568" font-family="Arial" font-size="9" fill="#333">Python文件</text>

  <!-- Technology Stack -->
  <rect x="180" y="590" width="220" height="70" fill="#FCE4EC" stroke="#E91E63" stroke-width="1" rx="5"/>
  <text x="290" y="608" text-anchor="middle" font-family="Arial" font-weight="bold" font-size="11" fill="#C2185B">技术栈</text>

  <text x="200" y="625" font-family="Arial" font-size="9" fill="#333">Web: Django 4.2 + DRF 3.15</text>
  <text x="200" y="640" font-family="Arial" font-size="9" fill="#333">Task: Celery 5.3 + Redis + Beat</text>
  <text x="200" y="655" font-family="Arial" font-size="9" fill="#333">DB: MySQL + Django ORM</text>
</svg>