<?xml version="1.0" encoding="UTF-8"?>
<svg xmlns="http://www.w3.org/2000/svg" width="1000" height="750">
  <!-- Title -->
  <text x="500" y="25" text-anchor="middle" font-family="Arial" font-weight="bold" font-size="20" fill="#0D47A1">RDS Agent 系统架构图 (Django + Celery + Hermes)</text>

  <!-- Layer 1: 用户交互层 -->
  <rect x="50" y="50" width="900" height="80" fill="#f5f5f5" stroke="#333" stroke-width="2" rx="5"/>
  <text x="70" y="70" font-family="Arial" font-weight="bold" font-size="14" fill="#1565C0">用户交互层</text>

  <rect x="100" y="80" width="100" height="40" fill="#fff" stroke="#666" stroke-width="1" rx="5"/>
  <text x="150" y="100" text-anchor="middle" font-family="Arial" font-weight="bold" font-size="11" fill="#2196F3">CLI</text>
  <text x="150" y="115" text-anchor="middle" font-family="Arial" font-size="9" fill="#333">命令行界面</text>

  <rect x="220" y="80" width="150" height="40" fill="#fff" stroke="#666" stroke-width="1" rx="5"/>
  <text x="295" y="100" text-anchor="middle" font-family="Arial" font-weight="bold" font-size="11" fill="#2196F3">Django REST API</text>
  <text x="295" y="115" text-anchor="middle" font-family="Arial" font-size="9" fill="#333">任务/告警/历史管理</text>

  <rect x="390" y="80" width="130" height="40" fill="#fff" stroke="#666" stroke-width="1" rx="5"/>
  <text x="455" y="100" text-anchor="middle" font-family="Arial" font-weight="bold" font-size="11" fill="#2196F3">Celery Beat</text>
  <text x="455" y="115" text-anchor="middle" font-family="Arial" font-size="9" fill="#333">定时调度触发</text>

  <rect x="540" y="80" width="130" height="40" fill="#fff" stroke="#666" stroke-width="1" rx="5"/>
  <text x="605" y="100" text-anchor="middle" font-family="Arial" font-weight="bold" font-size="11" fill="#2196F3">Celery Worker</text>
  <text x="605" y="115" text-anchor="middle" font-family="Arial" font-size="9" fill="#333">任务执行</text>

  <rect x="690" y="80" width="150" height="40" fill="#fff" stroke="#666" stroke-width="1" rx="5"/>
  <text x="765" y="100" text-anchor="middle" font-family="Arial" font-weight="bold" font-size="11" fill="#2196F3">Notification</text>
  <text x="765" y="115" text-anchor="middle" font-family="Arial" font-size="9" fill="#333">DingTalk/Email/WeChat</text>

  <!-- Layer 2: Agent核心层 (双架构) -->
  <rect x="50" y="150" width="900" height="150" fill="#E3F2FD" stroke="#333" stroke-width="2" rx="5"/>
  <text x="70" y="170" font-family="Arial" font-weight="bold" font-size="14" fill="#1565C0">Agent核心层 (双架构)</text>

  <!-- LangGraph Agent -->
  <rect x="70" y="185" width="380" height="100" fill="#fff" stroke="#9C27B0" stroke-width="2" rx="5"/>
  <rect x="70" y="185" width="380" height="18" fill="#9C27B0" rx="5"/>
  <text x="260" y="198" text-anchor="middle" font-family="Arial" font-weight="bold" font-size="12" fill="#fff">LangGraph Agent (复杂流程)</text>

  <!-- Q&A Agent -->
  <rect x="90" y="210" width="160" height="65" fill="#F3E5F5" stroke="#9C27B0" stroke-width="1" rx="3"/>
  <text x="170" y="225" text-anchor="middle" font-family="Arial" font-weight="bold" font-size="10" fill="#7B1FA2">问答Agent</text>
  <text x="170" y="240" text-anchor="middle" font-family="Arial" font-size="9" fill="#333">意图识别</text>
  <text x="170" y="255" text-anchor="middle" font-family="Arial" font-size="9" fill="#333">状态机编排</text>
  <text x="170" y="270" text-anchor="middle" font-family="Arial" font-size="9" fill="#333">LangChain Tools</text>

  <!-- Diagnostic Agent -->
  <rect x="260" y="210" width="180" height="65" fill="#F3E5F5" stroke="#9C27B0" stroke-width="1" rx="3"/>
  <text x="350" y="225" text-anchor="middle" font-family="Arial" font-weight="bold" font-size="10" fill="#7B1FA2">诊断Agent</text>
  <text x="350" y="240" text-anchor="middle" font-family="Arial" font-size="9" fill="#333">13项检查</text>
  <text x="350" y="255" text-anchor="middle" font-family="Arial" font-size="9" fill="#333">报告生成</text>
  <text x="350" y="270" text-anchor="middle" font-family="Arial" font-size="9" fill="#333">参数优化</text>

  <!-- Hermes Agent -->
  <rect x="470" y="185" width="380" height="100" fill="#fff" stroke="#E91E63" stroke-width="2" rx="5"/>
  <rect x="470" y="185" width="380" height="18" fill="#E91E63" rx="5"/>
  <text x="660" y="198" text-anchor="middle" font-family="Arial" font-weight="bold" font-size="12" fill="#fff">Hermes Agent (Function Calling)</text>

  <!-- Hermes Components -->
  <rect x="490" y="210" width="120" height="65" fill="#FCE4EC" stroke="#E91E63" stroke-width="1" rx="3"/>
  <text x="550" y="225" text-anchor="middle" font-family="Arial" font-weight="bold" font-size="10" fill="#C2185B">HermesAgent</text>
  <text x="550" y="240" text-anchor="middle" font-family="Arial" font-size="9" fill="#333">原生工具调用</text>
  <text x="550" y="255" text-anchor="middle" font-family="Arial" font-size="9" fill="#333">自动循环</text>
  <text x="550" y="270" text-anchor="middle" font-family="Arial" font-size="9" fill="#333">OpenAI格式</text>

  <rect x="620" y="210" width="110" height="65" fill="#FCE4EC" stroke="#E91E63" stroke-width="1" rx="3"/>
  <text x="675" y="225" text-anchor="middle" font-family="Arial" font-weight="bold" font-size="10" fill="#C2185B">HermesClient</text>
  <text x="675" y="240" text-anchor="middle" font-family="Arial" font-size="9" fill="#333">Ollama API</text>
  <text x="675" y="255" text-anchor="middle" font-family="Arial" font-size="9" fill="#333">Hermes 3</text>
  <text x="675" y="270" text-anchor="middle" font-family="Arial" font-size="9" fill="#333">工具解析</text>

  <rect x="740" y="210" width="100" height="65" fill="#FCE4EC" stroke="#E91E63" stroke-width="1" rx="3"/>
  <text x="790" y="225" text-anchor="middle" font-family="Arial" font-weight="bold" font-size="10" fill="#C2185B">ToolRegistry</text>
  <text x="790" y="240" text-anchor="middle" font-family="Arial" font-size="9" fill="#333">8个RDS工具</text>
  <text x="790" y="255" text-anchor="middle" font-family="Arial" font-size="9" fill="#333">FunctionSchema</text>
  <text x="790" y="270" text-anchor="middle" font-family="Arial" font-size="9" fill="#333">Handler执行</text>

  <!-- Layer 3: Django + Celery 层 -->
  <rect x="50" y="320" width="900" height="90" fill="#FFF3E0" stroke="#333" stroke-width="2" rx="5"/>
  <text x="70" y="340" font-family="Arial" font-weight="bold" font-size="14" fill="#E65100">Django + Celery 层</text>

  <!-- Django ORM -->
  <rect x="100" y="355" width="130" height="45" fill="#fff" stroke="#666" stroke-width="1" rx="3"/>
  <text x="165" y="370" text-anchor="middle" font-family="Arial" font-weight="bold" font-size="10" fill="#3F51B5">Django ORM</text>
  <text x="165" y="385" text-anchor="middle" font-family="Arial" font-size="8" fill="#333">6个模型</text>

  <!-- Celery Tasks -->
  <rect x="250" y="355" width="130" height="45" fill="#fff" stroke="#666" stroke-width="1" rx="3"/>
  <text x="315" y="370" text-anchor="middle" font-family="Arial" font-weight="bold" font-size="10" fill="#FF9800">Celery Tasks</text>
  <text x="315" y="385" text-anchor="middle" font-family="Arial" font-size="8" fill="#333">5个任务</text>

  <!-- Services -->
  <rect x="400" y="355" width="130" height="45" fill="#fff" stroke="#666" stroke-width="1" rx="3"/>
  <text x="465" y="370" text-anchor="middle" font-family="Arial" font-weight="bold" font-size="10" fill="#00BCD4">Services</text>
  <text x="465" y="385" text-anchor="middle" font-family="Arial" font-size="8" fill="#333">4个服务</text>

  <!-- API ViewSets -->
  <rect x="550" y="355" width="130" height="45" fill="#fff" stroke="#666" stroke-width="1" rx="3"/>
  <text x="615" y="370" text-anchor="middle" font-family="Arial" font-weight="bold" font-size="10" fill="#3F51B5">DRF ViewSets</text>
  <text x="615" y="385" text-anchor="middle" font-family="Arial" font-size="8" fill="#333">5个ViewSet</text>

  <!-- Celery Beat -->
  <rect x="700" y="355" width="130" height="45" fill="#fff" stroke="#666" stroke-width="1" rx="3"/>
  <text x="765" y="370" text-anchor="middle" font-family="Arial" font-weight="bold" font-size="10" fill="#FF5722">Celery Beat</text>
  <text x="765" y="385" text-anchor="middle" font-family="Arial" font-size="8" fill="#333">django-celery-beat</text>

  <!-- Layer 4: 工具层 -->
  <rect x="50" y="430" width="900" height="80" fill="#e8f5e9" stroke="#333" stroke-width="2" rx="5"/>
  <text x="70" y="450" font-family="Arial" font-weight="bold" font-size="14" fill="#1565C0">工具层 (LangChain Tools / Hermes Tools)</text>

  <rect x="80" y="470" width="85" height="35" fill="#fff" stroke="#666" stroke-width="1" rx="3"/>
  <text x="122" y="485" text-anchor="middle" font-family="Arial" font-weight="bold" font-size="10" fill="#4CAF50">instance</text>

  <rect x="175" y="470" width="85" height="35" fill="#fff" stroke="#666" stroke-width="1" rx="3"/>
  <text x="217" y="485" text-anchor="middle" font-family="Arial" font-weight="bold" font-size="10" fill="#4CAF50">performance</text>

  <rect x="270" y="470" width="85" height="35" fill="#fff" stroke="#666" stroke-width="1" rx="3"/>
  <text x="312" y="485" text-anchor="middle" font-family="Arial" font-weight="bold" font-size="10" fill="#4CAF50">sql</text>

  <rect x="365" y="470" width="85" height="35" fill="#fff" stroke="#666" stroke-width="1" rx="3"/>
  <text x="407" y="485" text-anchor="middle" font-family="Arial" font-weight="bold" font-size="10" fill="#4CAF50">connection</text>

  <rect x="460" y="470" width="85" height="35" fill="#fff" stroke="#666" stroke-width="1" rx="3"/>
  <text x="502" y="485" text-anchor="middle" font-family="Arial" font-weight="bold" font-size="10" fill="#4CAF50">storage</text>

  <rect x="555" y="470" width="85" height="35" fill="#fff" stroke="#666" stroke-width="1" rx="3"/>
  <text x="597" y="485" text-anchor="middle" font-family="Arial" font-weight="bold" font-size="10" fill="#4CAF50">parameters</text>

  <rect x="650" y="470" width="85" height="35" fill="#fff" stroke="#666" stroke-width="1" rx="3"/>
  <text x="692" y="485" text-anchor="middle" font-family="Arial" font-weight="bold" font-size="10" fill="#4CAF50">knowledge</text>

  <rect x="745" y="470" width="85" height="35" fill="#fff" stroke="#666" stroke-width="1" rx="3"/>
  <text x="787" y="485" text-anchor="middle" font-family="Arial" font-weight="bold" font-size="10" fill="#4CAF50">diagnostic</text>

  <!-- Layer 5: 数据存储层 -->
  <rect x="50" y="530" width="900" height="80" fill="#fff3e0" stroke="#333" stroke-width="2" rx="5"/>
  <text x="70" y="550" font-family="Arial" font-weight="bold" font-size="14" fill="#1565C0">数据存储层</text>

  <rect x="100" y="565" width="150" height="40" fill="#fff" stroke="#666" stroke-width="1" rx="3"/>
  <text x="175" y="580" text-anchor="middle" font-family="Arial" font-weight="bold" font-size="11" fill="#FF9800">MySQL (Django)</text>
  <text x="175" y="595" text-anchor="middle" font-family="Arial" font-size="9" fill="#333">任务/告警/历史存储</text>

  <rect x="270" y="565" width="150" height="40" fill="#fff" stroke="#666" stroke-width="1" rx="3"/>
  <text x="345" y="580" text-anchor="middle" font-family="Arial" font-weight="bold" font-size="11" fill="#FF9800">Redis</text>
  <text x="345" y="595" text-anchor="middle" font-family="Arial" font-size="9" fill="#333">Celery Broker</text>

  <rect x="440" y="565" width="150" height="40" fill="#fff" stroke="#666" stroke-width="1" rx="3"/>
  <text x="515" y="580" text-anchor="middle" font-family="Arial" font-weight="bold" font-size="11" fill="#FF9800">MySQL Client</text>
  <text x="515" y="595" text-anchor="middle" font-family="Arial" font-size="9" fill="#333">直连数据库诊断</text>

  <rect x="610" y="565" width="150" height="40" fill="#fff" stroke="#666" stroke-width="1" rx="3"/>
  <text x="685" y="580" text-anchor="middle" font-family="Arial" font-weight="bold" font-size="11" fill="#FF9800">Vector Store</text>
  <text x="685" y="595" text-anchor="middle" font-family="Arial" font-size="9" fill="#333">ChromaDB知识库</text>

  <rect x="780" y="565" width="110" height="40" fill="#fff" stroke="#666" stroke-width="1" rx="3"/>
  <text x="835" y="580" text-anchor="middle" font-family="Arial" font-weight="bold" font-size="11" fill="#FF9800">Platform API</text>
  <text x="835" y="595" text-anchor="middle" font-family="Arial" font-size="9" fill="#333">实例管理平台</text>

  <!-- Layer 6: LLM层 -->
  <rect x="50" y="630" width="900" height="80" fill="#fce4ec" stroke="#333" stroke-width="2" rx="5"/>
  <text x="70" y="650" font-family="Arial" font-weight="bold" font-size="14" fill="#1565C0">LLM层 (本地部署)</text>

  <rect x="150" y="665" width="180" height="40" fill="#fff" stroke="#666" stroke-width="1" rx="3"/>
  <text x="240" y="680" text-anchor="middle" font-family="Arial" font-weight="bold" font-size="12" fill="#E91E63">Ollama</text>
  <text x="240" y="695" text-anchor="middle" font-family="Arial" font-size="10" fill="#333">Qwen2.5-14B (LangGraph)</text>

  <rect x="370" y="665" width="180" height="40" fill="#fff" stroke="#666" stroke-width="1" rx="3"/>
  <text x="460" y="680" text-anchor="middle" font-family="Arial" font-weight="bold" font-size="12" fill="#E91E63">Hermes 3</text>
  <text x="460" y="695" text-anchor="middle" font-family="Arial" font-size="10" fill="#333">Function Calling (原生)</text>

  <rect x="590" y="665" width="180" height="40" fill="#fff" stroke="#666" stroke-width="1" rx="3"/>
  <text x="680" y="680" text-anchor="middle" font-family="Arial" font-weight="bold" font-size="12" fill="#E91E63">Embeddings</text>
  <text x="680" y="695" text-anchor="middle" font-family="Arial" font-size="10" fill="#333">nomic-embed-text</text>

  <!-- Legend -->
  <rect x="50" y="720" width="900" height="25" fill="#fafafa" stroke="#ddd" stroke-width="1" rx="3"/>
  <rect x="70" y="725" width="12" height="12" fill="#9C27B0" rx="2"/>
  <text x="85" y="733" font-family="Arial" font-size="9" fill="#333">LangGraph</text>
  <rect x="150" y="725" width="12" height="12" fill="#E91E63" rx="2"/>
  <text x="165" y="733" font-family="Arial" font-size="9" fill="#333">Hermes</text>
  <rect x="230" y="725" width="12" height="12" fill="#3F51B5" rx="2"/>
  <text x="245" y="733" font-family="Arial" font-size="9" fill="#333">Django</text>
  <rect x="310" y="725" width="12" height="12" fill="#FF9800" rx="2"/>
  <text x="325" y="733" font-family="Arial" font-size="9" fill="#333">Celery</text>
  <rect x="380" y="725" width="12" height="12" fill="#4CAF50" rx="2"/>
  <text x="395" y="733" font-family="Arial" font-size="9" fill="#333">Tools</text>
  <text x="800" y="733" text-anchor="end" font-family="Arial" font-size="9" fill="#666">双 Agent 架构: LangGraph + Hermes</text>
</svg>