<?xml version="1.0" encoding="UTF-8"?>
<svg xmlns="http://www.w3.org/2000/svg" width="1000" height="800">
  <!-- Title -->
  <text x="500" y="25" text-anchor="middle" font-family="Arial" font-weight="bold" font-size="20" fill="#0D47A1">RDS Agent 系统架构图</text>
  <text x="500" y="45" text-anchor="middle" font-family="Arial" font-size="12" fill="#666">(Django + Celery + Hermes)</text>

  <!-- ========== Layer 1: 用户交互层 ========== -->
  <rect x="50" y="60" width="900" height="75" fill="#f5f5f5" stroke="#333" stroke-width="2" rx="5"/>
  <text x="70" y="80" font-family="Arial" font-weight="bold" font-size="13" fill="#1565C0">用户交互层</text>

  <!-- CLI -->
  <rect x="100" y="88" width="95" height="38" fill="#fff" stroke="#666" stroke-width="1" rx="5"/>
  <text x="147" y="102" text-anchor="middle" font-family="Arial" font-weight="bold" font-size="10" fill="#2196F3">CLI</text>
  <text x="147" y="118" text-anchor="middle" font-family="Arial" font-size="8" fill="#333">命令行界面</text>

  <!-- Django REST API -->
  <rect x="210" y="88" width="140" height="38" fill="#fff" stroke="#666" stroke-width="1" rx="5"/>
  <text x="280" y="102" text-anchor="middle" font-family="Arial" font-weight="bold" font-size="10" fill="#2196F3">Django REST API</text>
  <text x="280" y="118" text-anchor="middle" font-family="Arial" font-size="8" fill="#333">任务/告警管理</text>

  <!-- Celery Beat -->
  <rect x="365" y="88" width="120" height="38" fill="#fff" stroke="#666" stroke-width="1" rx="5"/>
  <text x="425" y="102" text-anchor="middle" font-family="Arial" font-weight="bold" font-size="10" fill="#2196F3">Celery Beat</text>
  <text x="425" y="118" text-anchor="middle" font-family="Arial" font-size="8" fill="#333">定时调度触发</text>

  <!-- Celery Worker -->
  <rect x="500" y="88" width="120" height="38" fill="#fff" stroke="#666" stroke-width="1" rx="5"/>
  <text x="560" y="102" text-anchor="middle" font-family="Arial" font-weight="bold" font-size="10" fill="#2196F3">Celery Worker</text>
  <text x="560" y="118" text-anchor="middle" font-family="Arial" font-size="8" fill="#333">任务执行</text>

  <!-- Notification -->
  <rect x="635" y="88" width="140" height="38" fill="#fff" stroke="#666" stroke-width="1" rx="5"/>
  <text x="705" y="102" text-anchor="middle" font-family="Arial" font-weight="bold" font-size="10" fill="#2196F3">Notification</text>
  <text x="705" y="118" text-anchor="middle" font-family="Arial" font-size="8" fill="#333">DingTalk/Email/WeChat</text>

  <!-- ========== Layer 2: Agent核心层 (双架构) ========== -->
  <rect x="50" y="150" width="900" height="135" fill="#E3F2FD" stroke="#333" stroke-width="2" rx="5"/>
  <text x="70" y="168" font-family="Arial" font-weight="bold" font-size="13" fill="#1565C0">Agent核心层 (双架构)</text>

  <!-- LangGraph Agent Container -->
  <rect x="70" y="180" width="360" height="95" fill="#fff" stroke="#9C27B0" stroke-width="2" rx="5"/>
  <rect x="70" y="180" width="360" height="16" fill="#9C27B0" rx="5"/>
  <text x="250" y="192" text-anchor="middle" font-family="Arial" font-weight="bold" font-size="11" fill="#fff">LangGraph Agent (复杂流程)</text>

  <!-- Q&A Agent -->
  <rect x="85" y="202" width="155" height="65" fill="#F3E5F5" stroke="#9C27B0" stroke-width="1" rx="3"/>
  <text x="162" y="217" text-anchor="middle" font-family="Arial" font-weight="bold" font-size="9" fill="#7B1FA2">问答Agent</text>
  <text x="162" y="230" text-anchor="middle" font-family="Arial" font-size="8" fill="#333">意图识别</text>
  <text x="162" y="243" text-anchor="middle" font-family="Arial" font-size="8" fill="#333">状态机编排</text>
  <text x="162" y="256" text-anchor="middle" font-family="Arial" font-size="8" fill="#333">LangChain Tools</text>

  <!-- Diagnostic Agent -->
  <rect x="250" y="202" width="170" height="65" fill="#F3E5F5" stroke="#9C27B0" stroke-width="1" rx="3"/>
  <text x="335" y="217" text-anchor="middle" font-family="Arial" font-weight="bold" font-size="9" fill="#7B1FA2">诊断Agent</text>
  <text x="335" y="230" text-anchor="middle" font-family="Arial" font-size="8" fill="#333">13项检查</text>
  <text x="335" y="243" text-anchor="middle" font-family="Arial" font-size="8" fill="#333">报告生成</text>
  <text x="335" y="256" text-anchor="middle" font-family="Arial" font-size="8" fill="#333">参数优化</text>

  <!-- Hermes Agent Container -->
  <rect x="445" y="180" width="360" height="95" fill="#fff" stroke="#E91E63" stroke-width="2" rx="5"/>
  <rect x="445" y="180" width="360" height="16" fill="#E91E63" rx="5"/>
  <text x="625" y="192" text-anchor="middle" font-family="Arial" font-weight="bold" font-size="11" fill="#fff">Hermes Agent (Function Calling)</text>

  <!-- HermesAgent -->
  <rect x="460" y="202" width="105" height="65" fill="#FCE4EC" stroke="#E91E63" stroke-width="1" rx="3"/>
  <text x="512" y="217" text-anchor="middle" font-family="Arial" font-weight="bold" font-size="9" fill="#C2185B">HermesAgent</text>
  <text x="512" y="230" text-anchor="middle" font-family="Arial" font-size="8" fill="#333">原生工具调用</text>
  <text x="512" y="243" text-anchor="middle" font-family="Arial" font-size="8" fill="#333">自动循环</text>
  <text x="512" y="256" text-anchor="middle" font-family="Arial" font-size="8" fill="#333">OpenAI格式</text>

  <!-- HermesClient -->
  <rect x="575" y="202" width="105" height="65" fill="#FCE4EC" stroke="#E91E63" stroke-width="1" rx="3"/>
  <text x="627" y="217" text-anchor="middle" font-family="Arial" font-weight="bold" font-size="9" fill="#C2185B">HermesClient</text>
  <text x="627" y="230" text-anchor="middle" font-family="Arial" font-size="8" fill="#333">Ollama API</text>
  <text x="627" y="243" text-anchor="middle" font-family="Arial" font-size="8" fill="#333">Hermes 3</text>
  <text x="627" y="256" text-anchor="middle" font-family="Arial" font-size="8" fill="#333">工具解析</text>

  <!-- ToolRegistry -->
  <rect x="690" y="202" width="105" height="65" fill="#FCE4EC" stroke="#E91E63" stroke-width="1" rx="3"/>
  <text x="742" y="217" text-anchor="middle" font-family="Arial" font-weight="bold" font-size="9" fill="#C2185B">ToolRegistry</text>
  <text x="742" y="230" text-anchor="middle" font-family="Arial" font-size="8" fill="#333">8个RDS工具</text>
  <text x="742" y="243" text-anchor="middle" font-family="Arial" font-size="8" fill="#333">FunctionSchema</text>
  <text x="742" y="256" text-anchor="middle" font-family="Arial" font-size="8" fill="#333">Handler执行</text>

  <!-- ========== Layer 3: Django + Celery 层 ========== -->
  <rect x="50" y="300" width="900" height="80" fill="#FFF3E0" stroke="#333" stroke-width="2" rx="5"/>
  <text x="70" y="318" font-family="Arial" font-weight="bold" font-size="13" fill="#E65100">Django + Celery 层</text>

  <!-- Django ORM -->
  <rect x="100" y="330" width="120" height="40" fill="#fff" stroke="#666" stroke-width="1" rx="3"/>
  <text x="160" y="345" text-anchor="middle" font-family="Arial" font-weight="bold" font-size="9" fill="#3F51B5">Django ORM</text>
  <text x="160" y="360" text-anchor="middle" font-family="Arial" font-size="7" fill="#333">6个模型</text>

  <!-- Celery Tasks -->
  <rect x="235" y="330" width="120" height="40" fill="#fff" stroke="#666" stroke-width="1" rx="3"/>
  <text x="295" y="345" text-anchor="middle" font-family="Arial" font-weight="bold" font-size="9" fill="#FF9800">Celery Tasks</text>
  <text x="295" y="360" text-anchor="middle" font-family="Arial" font-size="7" fill="#333">5个任务</text>

  <!-- Services -->
  <rect x="370" y="330" width="120" height="40" fill="#fff" stroke="#666" stroke-width="1" rx="3"/>
  <text x="430" y="345" text-anchor="middle" font-family="Arial" font-weight="bold" font-size="9" fill="#00BCD4">Services</text>
  <text x="430" y="360" text-anchor="middle" font-family="Arial" font-size="7" fill="#333">4个服务</text>

  <!-- DRF ViewSets -->
  <rect x="505" y="330" width="120" height="40" fill="#fff" stroke="#666" stroke-width="1" rx="3"/>
  <text x="565" y="345" text-anchor="middle" font-family="Arial" font-weight="bold" font-size="9" fill="#3F51B5">DRF ViewSets</text>
  <text x="565" y="360" text-anchor="middle" font-family="Arial" font-size="7" fill="#333">5个ViewSet</text>

  <!-- Celery Beat -->
  <rect x="640" y="330" width="120" height="40" fill="#fff" stroke="#666" stroke-width="1" rx="3"/>
  <text x="700" y="345" text-anchor="middle" font-family="Arial" font-weight="bold" font-size="9" fill="#FF5722">Celery Beat</text>
  <text x="700" y="360" text-anchor="middle" font-family="Arial" font-size="7" fill="#333">django-celery-beat</text>

  <!-- ========== Layer 4: 工具层 ========== -->
  <rect x="50" y="395" width="900" height="70" fill="#e8f5e9" stroke="#333" stroke-width="2" rx="5"/>
  <text x="70" y="413" font-family="Arial" font-weight="bold" font-size="13" fill="#1565C0">工具层 (LangChain / Hermes Tools)</text>

  <!-- Tools -->
  <rect x="80" y="425" width="80" height="32" fill="#fff" stroke="#666" stroke-width="1" rx="3"/>
  <text x="120" y="440" text-anchor="middle" font-family="Arial" font-weight="bold" font-size="9" fill="#4CAF50">instance</text>

  <rect x="170" y="425" width="80" height="32" fill="#fff" stroke="#666" stroke-width="1" rx="3"/>
  <text x="210" y="440" text-anchor="middle" font-family="Arial" font-weight="bold" font-size="9" fill="#4CAF50">performance</text>

  <rect x="260" y="425" width="80" height="32" fill="#fff" stroke="#666" stroke-width="1" rx="3"/>
  <text x="300" y="440" text-anchor="middle" font-family="Arial" font-weight="bold" font-size="9" fill="#4CAF50">sql</text>

  <rect x="350" y="425" width="80" height="32" fill="#fff" stroke="#666" stroke-width="1" rx="3"/>
  <text x="390" y="440" text-anchor="middle" font-family="Arial" font-weight="bold" font-size="9" fill="#4CAF50">connection</text>

  <rect x="440" y="425" width="80" height="32" fill="#fff" stroke="#666" stroke-width="1" rx="3"/>
  <text x="480" y="440" text-anchor="middle" font-family="Arial" font-weight="bold" font-size="9" fill="#4CAF50">storage</text>

  <rect x="530" y="425" width="80" height="32" fill="#fff" stroke="#666" stroke-width="1" rx="3"/>
  <text x="570" y="440" text-anchor="middle" font-family="Arial" font-weight="bold" font-size="9" fill="#4CAF50">parameters</text>

  <rect x="620" y="425" width="80" height="32" fill="#fff" stroke="#666" stroke-width="1" rx="3"/>
  <text x="660" y="440" text-anchor="middle" font-family="Arial" font-weight="bold" font-size="9" fill="#4CAF50">knowledge</text>

  <rect x="710" y="425" width="80" height="32" fill="#fff" stroke="#666" stroke-width="1" rx="3"/>
  <text x="750" y="440" text-anchor="middle" font-family="Arial" font-weight="bold" font-size="9" fill="#4CAF50">diagnostic</text>

  <!-- ========== Layer 5: 数据存储层 ========== -->
  <rect x="50" y="480" width="900" height="70" fill="#fff3e0" stroke="#333" stroke-width="2" rx="5"/>
  <text x="70" y="498" font-family="Arial" font-weight="bold" font-size="13" fill="#1565C0">数据存储层</text>

  <!-- MySQL (Django) -->
  <rect x="100" y="508" width="140" height="35" fill="#fff" stroke="#666" stroke-width="1" rx="3"/>
  <text x="170" y="522" text-anchor="middle" font-family="Arial" font-weight="bold" font-size="10" fill="#FF9800">MySQL (Django)</text>
  <text x="170" y="538" text-anchor="middle" font-family="Arial" font-size="8" fill="#333">任务/告警/历史</text>

  <!-- Redis -->
  <rect x="255" y="508" width="140" height="35" fill="#fff" stroke="#666" stroke-width="1" rx="3"/>
  <text x="325" y="522" text-anchor="middle" font-family="Arial" font-weight="bold" font-size="10" fill="#FF9800">Redis</text>
  <text x="325" y="538" text-anchor="middle" font-family="Arial" font-size="8" fill="#333">Celery Broker</text>

  <!-- MySQL Client -->
  <rect x="410" y="508" width="140" height="35" fill="#fff" stroke="#666" stroke-width="1" rx="3"/>
  <text x="480" y="522" text-anchor="middle" font-family="Arial" font-weight="bold" font-size="10" fill="#FF9800">MySQL Client</text>
  <text x="480" y="538" text-anchor="middle" font-family="Arial" font-size="8" fill="#333">直连数据库诊断</text>

  <!-- Vector Store -->
  <rect x="565" y="508" width="140" height="35" fill="#fff" stroke="#666" stroke-width="1" rx="3"/>
  <text x="635" y="522" text-anchor="middle" font-family="Arial" font-weight="bold" font-size="10" fill="#FF9800">Vector Store</text>
  <text x="635" y="538" text-anchor="middle" font-family="Arial" font-size="8" fill="#333">ChromaDB知识库</text>

  <!-- Platform API -->
  <rect x="720" y="508" width="110" height="35" fill="#fff" stroke="#666" stroke-width="1" rx="3"/>
  <text x="775" y="522" text-anchor="middle" font-family="Arial" font-weight="bold" font-size="10" fill="#FF9800">Platform API</text>
  <text x="775" y="538" text-anchor="middle" font-family="Arial" font-size="8" fill="#333">实例管理</text>

  <!-- ========== Layer 6: LLM层 ========== -->
  <rect x="50" y="565" width="900" height="70" fill="#fce4ec" stroke="#333" stroke-width="2" rx="5"/>
  <text x="70" y="583" font-family="Arial" font-weight="bold" font-size="13" fill="#1565C0">LLM层 (本地部署)</text>

  <!-- Ollama -->
  <rect x="150" y="593" width="170" height="35" fill="#fff" stroke="#666" stroke-width="1" rx="3"/>
  <text x="235" y="608" text-anchor="middle" font-family="Arial" font-weight="bold" font-size="11" fill="#E91E63">Ollama</text>
  <text x="235" y="623" text-anchor="middle" font-family="Arial" font-size="9" fill="#333">Qwen2.5-14B (LangGraph)</text>

  <!-- Hermes 3 -->
  <rect x="340" y="593" width="170" height="35" fill="#fff" stroke="#666" stroke-width="1" rx="3"/>
  <text x="425" y="608" text-anchor="middle" font-family="Arial" font-weight="bold" font-size="11" fill="#E91E63">Hermes 3</text>
  <text x="425" y="623" text-anchor="middle" font-family="Arial" font-size="9" fill="#333">Function Calling</text>

  <!-- Embeddings -->
  <rect x="530" y="593" width="170" height="35" fill="#fff" stroke="#666" stroke-width="1" rx="3"/>
  <text x="615" y="608" text-anchor="middle" font-family="Arial" font-weight="bold" font-size="11" fill="#E91E63">Embeddings</text>
  <text x="615" y="623" text-anchor="middle" font-family="Arial" font-size="9" fill="#333">nomic-embed-text</text>

  <!-- ========== Legend ========== -->
  <rect x="50" y="650" width="900" height="25" fill="#fafafa" stroke="#ddd" stroke-width="1" rx="3"/>

  <rect x="70" y="656" width="12" height="12" fill="#9C27B0" rx="2"/>
  <text x="85" y="664" font-family="Arial" font-size="9" fill="#333">LangGraph</text>

  <rect x="145" y="656" width="12" height="12" fill="#E91E63" rx="2"/>
  <text x="160" y="664" font-family="Arial" font-size="9" fill="#333">Hermes</text>

  <rect x="220" y="656" width="12" height="12" fill="#3F51B5" rx="2"/>
  <text x="235" y="664" font-family="Arial" font-size="9" fill="#333">Django</text>

  <rect x="295" y="656" width="12" height="12" fill="#FF9800" rx="2"/>
  <text x="310" y="664" font-family="Arial" font-size="9" fill="#333">Celery</text>

  <rect x="370" y="656" width="12" height="12" fill="#4CAF50" rx="2"/>
  <text x="385" y="664" font-family="Arial" font-size="9" fill="#333">Tools</text>

  <rect x="445" y="656" width="12" height="12" fill="#FF9800" rx="2"/>
  <text x="460" y="664" font-family="Arial" font-size="9" fill="#333">Storage</text>

  <text x="940" y="664" text-anchor="end" font-family="Arial" font-size="9" fill="#666">双 Agent 架构: LangGraph + Hermes</text>
</svg>