<?xml version="1.0" encoding="UTF-8"?>
<svg xmlns="http://www.w3.org/2000/svg" width="950" height="680">
  <!-- Title -->
  <text x="475" y="25" text-anchor="middle" font-family="Arial" font-weight="bold" font-size="20" fill="#0D47A1">RDS Agent 系统架构图 (Django + Celery)</text>

  <!-- Layer 1: 用户交互层 -->
  <rect x="50" y="50" width="850" height="80" fill="#f5f5f5" stroke="#333" stroke-width="2" rx="5"/>
  <text x="70" y="70" font-family="Arial" font-weight="bold" font-size="14" fill="#1565C0">用户交互层</text>

  <rect x="100" y="80" width="100" height="40" fill="#fff" stroke="#666" stroke-width="1" rx="5"/>
  <text x="150" y="100" text-anchor="middle" font-family="Arial" font-weight="bold" font-size="11" fill="#2196F3">CLI</text>
  <text x="150" y="115" text-anchor="middle" font-family="Arial" font-size="9" fill="#333">命令行界面</text>

  <rect x="220" y="80" width="150" height="40" fill="#fff" stroke="#666" stroke-width="1" rx="5"/>
  <text x="295" y="100" text-anchor="middle" font-family="Arial" font-weight="bold" font-size="11" fill="#2196F3">Django REST API</text>
  <text x="295" y="115" text-anchor="middle" font-family="Arial" font-size="9" fill="#333">任务/告警/历史管理</text>

  <rect x="390" y="80" width="130" height="40" fill="#fff" stroke="#666" stroke-width="1" rx="5"/>
  <text x="455" y="100" text-anchor="middle" font-family="Arial" font-weight="bold" font-size="11" fill="#2196F3">Celery Beat</text>
  <text x="455" y="115" text-anchor="middle" font-family="Arial" font-size="9" fill="#333">定时调度触发</text>

  <rect x="540" y="80" width="130" height="40" fill="#fff" stroke="#666" stroke-width="1" rx="5"/>
  <text x="605" y="100" text-anchor="middle" font-family="Arial" font-weight="bold" font-size="11" fill="#2196F3">Celery Worker</text>
  <text x="605" y="115" text-anchor="middle" font-family="Arial" font-size="9" fill="#333">任务执行</text>

  <rect x="690" y="80" width="150" height="40" fill="#fff" stroke="#666" stroke-width="1" rx="5"/>
  <text x="765" y="100" text-anchor="middle" font-family="Arial" font-weight="bold" font-size="11" fill="#2196F3">Notification</text>
  <text x="765" y="115" text-anchor="middle" font-family="Arial" font-size="9" fill="#333">DingTalk/Email/WeChat</text>

  <!-- Layer 2: Agent核心层 -->
  <rect x="50" y="150" width="400" height="130" fill="#e3f2fd" stroke="#333" stroke-width="2" rx="5"/>
  <text x="70" y="170" font-family="Arial" font-weight="bold" font-size="14" fill="#1565C0">Agent核心层 (LangGraph)</text>

  <!-- Q&A Agent -->
  <rect x="80" y="185" width="170" height="80" fill="#fff" stroke="#666" stroke-width="1" rx="5"/>
  <rect x="80" y="185" width="170" height="18" fill="#E91E63" rx="5"/>
  <text x="165" y="198" text-anchor="middle" font-family="Arial" font-weight="bold" font-size="11" fill="#fff">问答Agent</text>
  <text x="165" y="218" text-anchor="middle" font-family="Arial" font-size="10" fill="#333">意图识别</text>
  <text x="165" y="233" text-anchor="middle" font-family="Arial" font-size="10" fill="#333">工具执行</text>
  <text x="165" y="248" text-anchor="middle" font-family="Arial" font-size="10" fill="#333">响应生成</text>

  <!-- Diagnostic Agent -->
  <rect x="270" y="185" width="170" height="80" fill="#fff" stroke="#666" stroke-width="1" rx="5"/>
  <rect x="270" y="185" width="170" height="18" fill="#9C27B0" rx="5"/>
  <text x="355" y="198" text-anchor="middle" font-family="Arial" font-weight="bold" font-size="11" fill="#fff">诊断Agent</text>
  <text x="355" y="218" text-anchor="middle" font-family="Arial" font-size="10" fill="#333">13项检查</text>
  <text x="355" y="233" text-anchor="middle" font-family="Arial" font-size="10" fill="#333">结果分析</text>
  <text x="355" y="248" text-anchor="middle" font-family="Arial" font-size="10" fill="#333">报告生成</text>

  <!-- Layer 2b: Django + Celery -->
  <rect x="470" y="150" width="430" height="130" fill="#FFF3E0" stroke="#333" stroke-width="2" rx="5"/>
  <text x="490" y="170" font-family="Arial" font-weight="bold" font-size="14" fill="#E65100">Django + Celery 层</text>

  <!-- Django ORM -->
  <rect x="490" y="185" width="130" height="80" fill="#fff" stroke="#666" stroke-width="1" rx="5"/>
  <rect x="490" y="185" width="130" height="18" fill="#3F51B5" rx="5"/>
  <text x="555" y="198" text-anchor="middle" font-family="Arial" font-weight="bold" font-size="11" fill="#fff">Django ORM</text>
  <text x="555" y="218" text-anchor="middle" font-family="Arial" font-size="9" fill="#333">InspectionTask</text>
  <text x="555" y="233" text-anchor="middle" font-family="Arial" font-size="9" fill="#333">TaskExecution</text>
  <text x="555" y="248" text-anchor="middle" font-family="Arial" font-size="9" fill="#333">AlertRule/Event</text>

  <!-- Celery Tasks -->
  <rect x="640" y="185" width="130" height="80" fill="#fff" stroke="#666" stroke-width="1" rx="5"/>
  <rect x="640" y="185" width="130" height="18" fill="#FF9800" rx="5"/>
  <text x="705" y="198" text-anchor="middle" font-family="Arial" font-weight="bold" font-size="11" fill="#fff">Celery Tasks</text>
  <text x="705" y="218" text-anchor="middle" font-family="Arial" font-size="9" fill="#333">run_inspection</text>
  <text x="705" y="233" text-anchor="middle" font-family="Arial" font-size="9" fill="#333">check_alerts</text>
  <text x="705" y="248" text-anchor="middle" font-family="Arial" font-size="9" fill="#333">send_notification</text>

  <!-- Services -->
  <rect x="790" y="185" width="100" height="80" fill="#fff" stroke="#666" stroke-width="1" rx="5"/>
  <rect x="790" y="185" width="100" height="18" fill="#00BCD4" rx="5"/>
  <text x="840" y="198" text-anchor="middle" font-family="Arial" font-weight="bold" font-size="11" fill="#fff">Services</text>
  <text x="840" y="218" text-anchor="middle" font-family="Arial" font-size="9" fill="#333">TaskService</text>
  <text x="840" y="233" text-anchor="middle" font-family="Arial" font-size="9" fill="#333">AlertService</text>
  <text x="840" y="248" text-anchor="middle" font-family="Arial" font-size="9" fill="#333">HistoryService</text>

  <!-- Layer 3: 工具层 -->
  <rect x="50" y="300" width="850" height="80" fill="#e8f5e9" stroke="#333" stroke-width="2" rx="5"/>
  <text x="70" y="320" font-family="Arial" font-weight="bold" font-size="14" fill="#1565C0">工具层 (LangChain Tools)</text>

  <rect x="80" y="340" width="90" height="35" fill="#fff" stroke="#666" stroke-width="1" rx="3"/>
  <text x="125" y="355" text-anchor="middle" font-family="Arial" font-weight="bold" font-size="10" fill="#4CAF50">instance</text>
  <text x="125" y="368" text-anchor="middle" font-family="Arial" font-size="9" fill="#333">实例信息</text>

  <rect x="180" y="340" width="90" height="35" fill="#fff" stroke="#666" stroke-width="1" rx="3"/>
  <text x="225" y="355" text-anchor="middle" font-family="Arial" font-weight="bold" font-size="10" fill="#4CAF50">performance</text>
  <text x="225" y="368" text-anchor="middle" font-family="Arial" font-size="9" fill="#333">性能监控</text>

  <rect x="280" y="340" width="90" height="35" fill="#fff" stroke="#666" stroke-width="1" rx="3"/>
  <text x="325" y="355" text-anchor="middle" font-family="Arial" font-weight="bold" font-size="10" fill="#4CAF50">sql</text>
  <text x="325" y="368" text-anchor="middle" font-family="Arial" font-size="9" fill="#333">SQL诊断</text>

  <rect x="380" y="340" width="90" height="35" fill="#fff" stroke="#666" stroke-width="1" rx="3"/>
  <text x="425" y="355" text-anchor="middle" font-family="Arial" font-weight="bold" font-size="10" fill="#4CAF50">connection</text>
  <text x="425" y="368" text-anchor="middle" font-family="Arial" font-size="9" fill="#333">连接诊断</text>

  <rect x="480" y="340" width="90" height="35" fill="#fff" stroke="#666" stroke-width="1" rx="3"/>
  <text x="525" y="355" text-anchor="middle" font-family="Arial" font-weight="bold" font-size="10" fill="#4CAF50">storage</text>
  <text x="525" y="368" text-anchor="middle" font-family="Arial" font-size="9" fill="#333">存储分析</text>

  <rect x="580" y="340" width="90" height="35" fill="#fff" stroke="#666" stroke-width="1" rx="3"/>
  <text x="625" y="355" text-anchor="middle" font-family="Arial" font-weight="bold" font-size="10" fill="#4CAF50">parameters</text>
  <text x="625" y="368" text-anchor="middle" font-family="Arial" font-size="9" fill="#333">参数查询</text>

  <rect x="680" y="340" width="90" height="35" fill="#fff" stroke="#666" stroke-width="1" rx="3"/>
  <text x="725" y="355" text-anchor="middle" font-family="Arial" font-weight="bold" font-size="10" fill="#4CAF50">knowledge</text>
  <text x="725" y="368" text-anchor="middle" font-family="Arial" font-size="9" fill="#333">知识检索</text>

  <rect x="780" y="340" width="90" height="35" fill="#fff" stroke="#666" stroke-width="1" rx="3"/>
  <text x="825" y="355" text-anchor="middle" font-family="Arial" font-weight="bold" font-size="10" fill="#4CAF50">diagnostic</text>
  <text x="825" y="368" text-anchor="middle" font-family="Arial" font-size="9" fill="#333">诊断工具</text>

  <!-- Layer 4: 数据存储层 -->
  <rect x="50" y="400" width="850" height="80" fill="#fff3e0" stroke="#333" stroke-width="2" rx="5"/>
  <text x="70" y="420" font-family="Arial" font-weight="bold" font-size="14" fill="#1565C0">数据存储层</text>

  <rect x="100" y="435" width="150" height="40" fill="#fff" stroke="#666" stroke-width="1" rx="3"/>
  <text x="175" y="450" text-anchor="middle" font-family="Arial" font-weight="bold" font-size="11" fill="#FF9800">MySQL (Django)</text>
  <text x="175" y="465" text-anchor="middle" font-family="Arial" font-size="9" fill="#333">任务/告警/历史存储</text>

  <rect x="270" y="435" width="150" height="40" fill="#fff" stroke="#666" stroke-width="1" rx="3"/>
  <text x="345" y="450" text-anchor="middle" font-family="Arial" font-weight="bold" font-size="11" fill="#FF9800">Redis</text>
  <text x="345" y="465" text-anchor="middle" font-family="Arial" font-size="9" fill="#333">Celery Broker</text>

  <rect x="440" y="435" width="150" height="40" fill="#fff" stroke="#666" stroke-width="1" rx="3"/>
  <text x="515" y="450" text-anchor="middle" font-family="Arial" font-weight="bold" font-size="11" fill="#FF9800">MySQL Client</text>
  <text x="515" y="465" text-anchor="middle" font-family="Arial" font-size="9" fill="#333">直连数据库诊断</text>

  <rect x="610" y="435" width="150" height="40" fill="#fff" stroke="#666" stroke-width="1" rx="3"/>
  <text x="685" y="450" text-anchor="middle" font-family="Arial" font-weight="bold" font-size="11" fill="#FF9800">Vector Store</text>
  <text x="685" y="465" text-anchor="middle" font-family="Arial" font-size="9" fill="#333">ChromaDB知识库</text>

  <rect x="780" y="435" width="110" height="40" fill="#fff" stroke="#666" stroke-width="1" rx="3"/>
  <text x="835" y="450" text-anchor="middle" font-family="Arial" font-weight="bold" font-size="11" fill="#FF9800">Platform API</text>
  <text x="835" y="465" text-anchor="middle" font-family="Arial" font-size="9" fill="#333">实例管理平台</text>

  <!-- Layer 5: LLM层 -->
  <rect x="50" y="500" width="850" height="80" fill="#fce4ec" stroke="#333" stroke-width="2" rx="5"/>
  <text x="70" y="520" font-family="Arial" font-weight="bold" font-size="14" fill="#1565C0">LLM层 (本地部署)</text>

  <rect x="200" y="535" width="180" height="40" fill="#fff" stroke="#666" stroke-width="1" rx="3"/>
  <text x="290" y="550" text-anchor="middle" font-family="Arial" font-weight="bold" font-size="12" fill="#E91E63">Ollama</text>
  <text x="290" y="565" text-anchor="middle" font-family="Arial" font-size="10" fill="#333">Qwen2.5-14B</text>

  <rect x="420" y="535" width="180" height="40" fill="#fff" stroke="#666" stroke-width="1" rx="3"/>
  <text x="510" y="550" text-anchor="middle" font-family="Arial" font-weight="bold" font-size="12" fill="#E91E63">Embeddings</text>
  <text x="510" y="565" text-anchor="middle" font-family="Arial" font-size="10" fill="#333">nomic-embed-text</text>

  <!-- Legend -->
  <rect x="50" y="600" width="850" height="60" fill="#fafafa" stroke="#ddd" stroke-width="1" rx="5"/>
  <text x="70" y="620" font-family="Arial" font-weight="bold" font-size="11" fill="#333">颜色说明:</text>

  <rect x="70" y="630" width="16" height="12" fill="#E91E63" rx="2"/>
  <text x="90" y="638" font-family="Arial" font-size="10" fill="#333">core - 问答Agent</text>

  <rect x="180" y="630" width="16" height="12" fill="#9C27B0" rx="2"/>
  <text x="200" y="638" font-family="Arial" font-size="10" fill="#333">diagnostic - 诊断Agent</text>

  <rect x="320" y="630" width="16" height="12" fill="#3F51B5" rx="2"/>
  <text x="340" y="638" font-family="Arial" font-size="10" fill="#333">Django ORM</text>

  <rect x="420" y="630" width="16" height="12" fill="#FF9800" rx="2"/>
  <text x="440" y="638" font-family="Arial" font-size="10" fill="#333">Celery Tasks</text>

  <rect x="520" y="630" width="16" height="12" fill="#00BCD4" rx="2"/>
  <text x="540" y="638" font-family="Arial" font-size="10" fill="#333">Services</text>

  <rect x="620" y="630" width="16" height="12" fill="#4CAF50" rx="2"/>
  <text x="640" y="638" font-family="Arial" font-size="10" fill="#333">tools - 工具层</text>

  <rect x="720" y="630" width="16" height="12" fill="#FF9800" rx="2"/>
  <text x="740" y="638" font-family="Arial" font-size="10" fill="#333">data - 数据存储</text>

  <!-- Arrows -->
  <line x1="150" y1="120" x2="165" y2="185" stroke="#1976D2" stroke-width="2"/>
  <line x1="295" y1="120" x2="555" y2="185" stroke="#1976D2" stroke-width="2"/>
  <line x1="455" y1="120" x2="705" y2="185" stroke="#1976D2" stroke-width="2"/>
  <line x1="605" y1="120" x2="705" y2="185" stroke="#1976D2" stroke-width="2"/>
  <line x1="765" y1="120" x2="840" y2="185" stroke="#1976D2" stroke-width="2"/>

  <line x1="165" y1="265" x2="125" y2="340" stroke="#1976D2" stroke-width="1"/>
  <line x1="355" y1="265" x2="325" y2="340" stroke="#1976D2" stroke-width="1"/>
  <line x1="555" y1="265" x2="175" y2="435" stroke="#1976D2" stroke-width="1"/>
  <line x1="705" y1="265" x2="355" y2="435" stroke="#1976D2" stroke-width="1"/>
  <line x1="840" y1="265" x2="175" y2="435" stroke="#1976D2" stroke-width="1"/>

  <line x1="125" y1="375" x2="175" y2="435" stroke="#1976D2" stroke-width="1"/>
  <line x1="525" y1="375" x2="515" y2="435" stroke="#1976D2" stroke-width="1"/>
  <line x1="725" y1="375" x2="685" y2="435" stroke="#1976D2" stroke-width="1"/>
  <line x1="825" y1="375" x2="835" y2="435" stroke="#1976D2" stroke-width="1"/>
</svg>